<?xml version="1.0" standalone="no"?>
<!DOCTYPE svg PUBLIC "-//W3C//DTD SVG 20010904//EN"
 "http://www.w3.org/TR/2001/REC-SVG-20010904/DTD/svg10.dtd">
<svg version="1.0" xmlns="http://www.w3.org/2000/svg"
 width="450.000000pt" height="450.000000pt" viewBox="0 0 450.000000 450.000000"
 preserveAspectRatio="xMidYMid meet">
<metadata>
Created by potrace 1.11, written by Peter Selinger 2001-2013
</metadata>
<g transform="translate(0.000000,450.000000) scale(0.100000,-0.100000)"
fill="#000000" stroke="none">
<path d="M478 4484 c-33 -17 -35 -26 -43 -149 -3 -55 -8 -120 -10 -145 -2 -25
-7 -88 -10 -140 -3 -52 -8 -120 -10 -150 -5 -58 -9 -113 -20 -295 -4 -60 -9
-123 -11 -140 -2 -16 -6 -89 -10 -161 l-7 -131 27 -21 c37 -29 63 -22 180 52
370 233 842 400 1219 433 l67 6 1 -49 c3 -89 -1 -388 -6 -479 -3 -49 -7 -135
-10 -190 -3 -55 -7 -127 -10 -160 -2 -33 -7 -100 -10 -150 -6 -93 -15 -168
-20 -173 -6 -6 -117 41 -121 51 -2 7 -6 75 -8 152 -4 161 -18 208 -84 296 -22
30 -69 101 -104 158 -69 114 -88 133 -115 115 -28 -18 -22 -154 11 -275 14
-53 26 -102 26 -109 0 -22 -55 -4 -239 79 -327 146 -428 175 -471 136 -11 -10
-20 -24 -20 -30 0 -7 -14 -15 -30 -19 -36 -7 -60 -48 -44 -74 8 -12 6 -20 -8
-34 -19 -19 -23 -45 -9 -67 5 -7 4 -25 -3 -42 -9 -25 -7 -36 13 -74 33 -62
117 -152 219 -235 48 -39 112 -92 143 -118 101 -84 293 -171 414 -187 28 -3
66 -15 85 -27 33 -19 160 -118 160 -124 0 -2 -9 -8 -21 -14 -23 -13 -40 -7
-474 164 -135 53 -244 90 -249 85 -5 -4 -8 -99 -7 -211 2 -251 11 -722 14
-724 5 -5 90 -14 182 -19 55 -3 132 -7 170 -10 122 -10 187 -14 300 -21 61 -4
117 -8 125 -9 22 -3 20 -43 -16 -295 -8 -58 -17 -127 -20 -155 -4 -27 -8 -53
-10 -56 -1 -3 -6 -35 -9 -72 -6 -61 -5 -68 18 -90 13 -14 42 -28 67 -32 23 -4
86 -22 139 -40 246 -84 491 -213 783 -411 153 -104 182 -113 218 -67 22 28 22
23 4 188 -9 83 -14 133 -24 235 -6 58 -13 121 -15 140 -4 33 -8 74 -20 203 -3
28 -12 120 -19 202 -8 83 -18 184 -21 225 -4 41 -8 82 -11 90 -3 13 17 15 139
14 78 0 185 3 237 7 200 16 246 20 290 24 25 2 88 7 140 10 52 4 97 9 100 12
8 7 7 761 0 774 -14 22 -206 -44 -368 -125 -168 -84 -332 -116 -345 -67 -9 34
168 167 235 178 165 24 362 118 478 227 25 24 72 63 105 88 119 90 227 222
225 274 -1 44 -1 71 1 101 1 14 -5 31 -12 37 -9 7 -13 25 -11 46 4 38 -16 60
-55 60 -16 0 -23 6 -23 18 0 11 -9 27 -20 37 -41 37 -156 -1 -595 -199 -27
-13 -62 -26 -77 -30 -36 -8 -36 -1 -3 129 41 158 36 275 -9 275 -18 0 -49 -37
-86 -105 -38 -67 -107 -173 -127 -194 -50 -50 -74 -150 -74 -302 1 -84 -3
-121 -13 -135 -14 -18 -15 -18 -21 11 -12 55 -16 65 -25 65 -4 0 -47 -18 -94
-40 l-86 -39 -1 37 c-1 20 -3 48 -4 62 -2 14 -6 88 -10 165 -4 77 -9 156 -11
175 -2 19 -7 190 -10 379 l-7 343 44 -6 c572 -87 1013 -232 1365 -447 65 -40
87 -49 108 -43 49 12 59 42 52 152 -4 54 -8 110 -11 123 -2 13 -7 69 -11 124
-9 136 -18 241 -29 365 -7 77 -15 172 -20 255 -18 263 -33 333 -70 336 -8 1
-21 2 -27 3 -7 1 -28 -2 -47 -7 -18 -5 -41 -10 -50 -12 -9 -2 -59 -13 -111
-24 -113 -24 -301 -59 -350 -65 -19 -2 -64 -9 -100 -15 -36 -5 -87 -13 -115
-16 -27 -3 -63 -8 -80 -10 -16 -2 -68 -7 -115 -10 -47 -4 -92 -8 -100 -10 -78
-19 -907 -28 -1165 -12 -385 24 -838 87 -1115 157 -111 28 -123 29 -152 14z"/>
</g>
</svg>
